<svg width="76" height="30" viewBox="0 0 76 30" fill="none" xmlns="http://www.w3.org/2000/svg">
<rect width="76" height="30" rx="15" fill="#EEEEEE"/>
<path d="M41.128 12.322V20H39.588V16.733H36.299V20H34.759V12.322H36.299V15.479H39.588V12.322H41.128ZM45.3498 20.099C44.7631 20.099 44.2351 19.9707 43.7658 19.714C43.2964 19.45 42.9261 19.0797 42.6548 18.603C42.3908 18.1263 42.2588 17.5763 42.2588 16.953C42.2588 16.3297 42.3944 15.7797 42.6658 15.303C42.9444 14.8263 43.3221 14.4597 43.7988 14.203C44.2754 13.939 44.8071 13.807 45.3938 13.807C45.9804 13.807 46.5121 13.939 46.9888 14.203C47.4654 14.4597 47.8394 14.8263 48.1108 15.303C48.3894 15.7797 48.5288 16.3297 48.5288 16.953C48.5288 17.5763 48.3858 18.1263 48.0998 18.603C47.8211 19.0797 47.4398 19.45 46.9558 19.714C46.4791 19.9707 45.9438 20.099 45.3498 20.099ZM45.3498 18.757C45.6284 18.757 45.8888 18.691 46.1308 18.559C46.3801 18.4197 46.5781 18.2143 46.7248 17.943C46.8714 17.6717 46.9448 17.3417 46.9448 16.953C46.9448 16.3737 46.7908 15.93 46.4828 15.622C46.1821 15.3067 45.8118 15.149 45.3718 15.149C44.9318 15.149 44.5614 15.3067 44.2608 15.622C43.9674 15.93 43.8208 16.3737 43.8208 16.953C43.8208 17.5323 43.9638 17.9797 44.2498 18.295C44.5431 18.603 44.9098 18.757 45.3498 18.757ZM57.2264 13.818C57.9744 13.818 58.5757 14.049 59.0304 14.511C59.4924 14.9657 59.7234 15.6037 59.7234 16.425V20H58.1834V16.634C58.1834 16.1573 58.0624 15.7943 57.8204 15.545C57.5784 15.2883 57.2484 15.16 56.8304 15.16C56.4124 15.16 56.0787 15.2883 55.8294 15.545C55.5874 15.7943 55.4664 16.1573 55.4664 16.634V20H53.9264V16.634C53.9264 16.1573 53.8054 15.7943 53.5634 15.545C53.3214 15.2883 52.9914 15.16 52.5734 15.16C52.1481 15.16 51.8107 15.2883 51.5614 15.545C51.3194 15.7943 51.1984 16.1573 51.1984 16.634V20H49.6584V13.906H51.1984V14.643C51.3964 14.3863 51.6494 14.1847 51.9574 14.038C52.2727 13.8913 52.6174 13.818 52.9914 13.818C53.4681 13.818 53.8934 13.9207 54.2674 14.126C54.6414 14.324 54.9311 14.61 55.1364 14.984C55.3344 14.632 55.6204 14.3497 55.9944 14.137C56.3757 13.9243 56.7864 13.818 57.2264 13.818ZM66.8498 16.821C66.8498 17.041 66.8351 17.239 66.8058 17.415H62.3508C62.3874 17.855 62.5414 18.1997 62.8128 18.449C63.0841 18.6983 63.4178 18.823 63.8138 18.823C64.3858 18.823 64.7928 18.5773 65.0348 18.086H66.6958C66.5198 18.6727 66.1824 19.1567 65.6838 19.538C65.1851 19.912 64.5728 20.099 63.8468 20.099C63.2601 20.099 62.7321 19.9707 62.2628 19.714C61.8008 19.45 61.4378 19.0797 61.1738 18.603C60.9171 18.1263 60.7888 17.5763 60.7888 16.953C60.7888 16.3223 60.9171 15.7687 61.1738 15.292C61.4304 14.8153 61.7898 14.4487 62.2518 14.192C62.7138 13.9353 63.2454 13.807 63.8468 13.807C64.4261 13.807 64.9431 13.9317 65.3978 14.181C65.8598 14.4303 66.2154 14.786 66.4648 15.248C66.7214 15.7027 66.8498 16.227 66.8498 16.821ZM65.2548 16.381C65.2474 15.985 65.1044 15.6697 64.8258 15.435C64.5471 15.193 64.2061 15.072 63.8028 15.072C63.4214 15.072 63.0988 15.1893 62.8348 15.424C62.5781 15.6513 62.4204 15.9703 62.3618 16.381H65.2548Z" fill="black"/>
<circle cx="15" cy="15" r="15" fill="black"/>
<path d="M13.3128 21.2024V19.2153C13.3128 18.7077 13.7269 18.2962 14.2378 18.2962H16.1066C16.3516 18.2962 16.5869 18.3931 16.7605 18.5653C16.934 18.7376 17.0315 18.9716 17.0315 19.2153V21.2024C17.0302 21.4137 17.1134 21.6165 17.2629 21.766C17.4131 21.9155 17.6166 22 17.8291 22H19.1038C19.6992 22.0013 20.2705 21.7679 20.6918 21.3506C21.1136 20.9333 21.3502 20.3665 21.3502 19.7757V14.1134C21.3502 13.6356 21.137 13.1832 20.7685 12.8771L16.4322 9.43917C15.6782 8.83661 14.5972 8.85611 13.8653 9.48532L9.62857 12.8771C9.24246 13.1741 9.0117 13.6285 9 14.1134V19.7698C9 21.0016 10.0056 22 11.2464 22H12.4919C12.9332 22 13.292 21.6464 13.2953 21.2083L13.3128 21.2024Z" fill="white"/>
</svg>
